# xmcd
#
# Track frame offsets: 
#        150
#        22385
#        49835
#        65367
#        78842
#        93580
#        106480
#        120597
#        134982
#        154510
#        166617
#
# Disc length: 2638 seconds
#
# Revision: 2
# Processed by: cddbd v1.5.1PL2 Copyright (c) Steve Scherf et al.
# Submitted via: ExactAudioCopy v0.95b3
#
DISCID=900a4c0b
DTITLE=Rory Block - Ain't I a Woman
DYEAR=1992
DGENRE=
TTITLE0=Silver Wings
TTITLE1=Faithless World
TTITLE2=Sisters
TTITLE3=Ain't I a Woman
TTITLE4=Come On in My Kitchen
TTITLE5=Rolling Log
TTITLE6=Maggie Campbell
TTITLE7=Never Called Your Name
TTITLE8=Road to Mexico
TTITLE9=Cool Drink of Water
TTITLE10=Walk in Jerusalem
EXTD=CD: Rounder CD 3120 (1992), UPC 011661312029.
EXTT0=
EXTT1=
EXTT2=
EXTT3=
EXTT4=
EXTT5=
EXTT6=
EXTT7=
EXTT8=
EXTT9=
EXTT10=
PLAYORDER=
